<svg width="24" height="27" viewBox="0 0 24 27" fill="none" xmlns="http://www.w3.org/2000/svg">
<path d="M16.8889 13.6553C16.8889 15.0698 16.3738 16.4263 15.457 17.4265C14.5401 18.4267 13.2966 18.9886 12 18.9886C10.7034 18.9886 9.45988 18.4267 8.54303 17.4265C7.62619 16.4263 7.11111 15.0698 7.11111 13.6553C7.11111 12.2408 7.62619 10.8842 8.54303 9.88403C9.45988 8.88384 10.7034 8.32194 12 8.32194C13.2966 8.32194 14.5401 8.88384 15.457 9.88403C16.3738 10.8842 16.8889 12.2408 16.8889 13.6553ZM16.8889 13.6553L16.8889 15.6551C16.8889 16.5391 17.2108 17.387 17.7838 18.0121C18.3569 18.6372 19.1341 18.9884 19.9444 18.9884C20.7548 18.9884 21.532 18.6372 22.105 18.0121C22.6781 17.387 23 16.5391 23 15.6551V13.6551C23.003 11.0765 22.2446 8.56552 20.8371 6.49399C19.4297 4.42246 17.4479 2.90061 15.1856 2.15387C12.9232 1.40713 10.5005 1.47523 8.27642 2.34809C6.05231 3.22094 4.14507 4.85211 2.83725 6.99997C1.52943 9.14783 0.890577 11.6981 1.01534 14.2731C1.1401 16.848 2.02184 19.3106 3.52994 21.2961C5.03804 23.2816 7.09228 24.6843 9.38834 25.2965C11.6844 25.9087 14.1002 25.6978 16.2778 24.6951" stroke="white" stroke-width="2" stroke-linecap="round" stroke-linejoin="round"/>
</svg>
