<svg width="24" height="24" viewBox="0 0 24 24" fill="none" xmlns="http://www.w3.org/2000/svg">
<path d="M18 5.99992V6.01325M1.33337 6.66659C1.33337 5.2521 1.89528 3.89554 2.89547 2.89535C3.89567 1.89515 5.25222 1.33325 6.66671 1.33325H17.3334C18.7479 1.33325 20.1044 1.89515 21.1046 2.89535C22.1048 3.89554 22.6667 5.2521 22.6667 6.66659V17.3333C22.6667 18.7477 22.1048 20.1043 21.1046 21.1045C20.1044 22.1047 18.7479 22.6666 17.3334 22.6666H6.66671C5.25222 22.6666 3.89567 22.1047 2.89547 21.1045C1.89528 20.1043 1.33337 18.7477 1.33337 17.3333V6.66659ZM8.00004 11.9999C8.00004 13.0608 8.42147 14.0782 9.17161 14.8283C9.92176 15.5785 10.9392 15.9999 12 15.9999C13.0609 15.9999 14.0783 15.5785 14.8285 14.8283C15.5786 14.0782 16 13.0608 16 11.9999C16 10.9391 15.5786 9.92164 14.8285 9.17149C14.0783 8.42135 13.0609 7.99992 12 7.99992C10.9392 7.99992 9.92176 8.42135 9.17161 9.17149C8.42147 9.92164 8.00004 10.9391 8.00004 11.9999Z" stroke="white" stroke-width="2" stroke-linecap="round" stroke-linejoin="round"/>
</svg>
