<svg width="40" height="40" viewBox="0 0 40 40" fill="none" xmlns="http://www.w3.org/2000/svg">
<path d="M19.1585 4.52318C19.5028 3.82561 20.4975 3.82561 20.8418 4.52318L25.2984 13.5534C25.4351 13.8304 25.6994 14.0224 26.0051 14.0668L35.9705 15.5149C36.7403 15.6267 37.0477 16.5728 36.4907 17.1158L29.2796 24.1448C29.0584 24.3604 28.9575 24.6711 29.0097 24.9755L30.712 34.9007C30.8435 35.6674 30.0388 36.2521 29.3502 35.8901L20.4369 31.2041C20.1634 31.0603 19.8368 31.0603 19.5634 31.2041L10.65 35.8901C9.96148 36.2521 9.15673 35.6674 9.28823 34.9007L10.9905 24.9755C11.0427 24.6711 10.9418 24.3604 10.7206 24.1448L3.50956 17.1158C2.95251 16.5728 3.25989 15.6267 4.02971 15.5149L13.9951 14.0668C14.3008 14.0224 14.5651 13.8304 14.7018 13.5534L19.1585 4.52318Z" fill="#D9D9D9"/>
</svg>
