<?xml version="1.0" encoding="UTF-8"?>
<svg xmlns="http://www.w3.org/2000/svg" xmlns:xlink="http://www.w3.org/1999/xlink" width="32" height="32" viewBox="0 0 2513.629914 631.349975">
<path fill-rule="nonzero" fill="white" fill-opacity="1" d="M 26.203125 520.242188 L 26.203125 578.546875 L 50.988281 578.546875 C 60.167969 578.546875 68.023438 575.679688 74.558594 569.9375 C 81.09375 564.199219 84.359375 557.324219 84.359375 549.324219 C 84.359375 541.324219 81.09375 534.476562 74.558594 528.78125 C 68.023438 523.089844 60.167969 520.242188 50.988281 520.242188 Z M 8.707031 615.253906 L 8.707031 516.429688 L 63.949219 516.429688 C 74.316406 516.429688 83.199219 519.652344 90.597656 526.097656 C 97.996094 532.546875 101.695312 540.289062 101.695312 549.324219 C 101.695312 555.253906 100.019531 560.757812 96.671875 565.84375 C 93.324219 570.925781 88.734375 574.949219 82.902344 577.914062 C 77.070312 580.878906 70.753906 582.363281 63.949219 582.363281 L 26.203125 582.363281 L 26.203125 615.253906 Z M 8.707031 615.253906 "/>
<path fill-rule="nonzero" fill="white" fill-opacity="1" d="M 112.710938 615.257812 L 112.710938 516.429688 L 202.132812 516.429688 L 202.132812 520.242188 L 130.207031 520.242188 L 130.207031 564.007812 L 172.972656 564.007812 L 172.972656 567.820312 L 130.207031 567.820312 L 130.207031 611.445312 L 202.132812 611.445312 L 202.132812 615.257812 Z M 112.710938 615.257812 "/>
<path fill-rule="nonzero" fill="white" fill-opacity="1" d="M 227.726562 520.242188 L 227.726562 578.546875 L 252.515625 578.546875 C 261.691406 578.546875 269.550781 575.679688 276.085938 569.9375 C 282.617188 564.199219 285.886719 557.324219 285.886719 549.324219 C 285.886719 541.324219 282.617188 534.476562 276.085938 528.78125 C 269.550781 523.089844 261.691406 520.242188 252.515625 520.242188 Z M 303.21875 549.324219 C 303.21875 554.878906 301.734375 560.078125 298.765625 564.925781 C 295.792969 569.773438 291.71875 573.726562 286.535156 576.785156 C 281.347656 579.84375 275.570312 581.65625 269.199219 582.21875 L 303.21875 615.253906 L 279.890625 615.253906 L 246.035156 582.363281 L 227.726562 582.363281 L 227.726562 615.253906 L 210.230469 615.253906 L 210.230469 516.429688 L 265.472656 516.429688 C 275.949219 516.429688 284.859375 519.652344 292.203125 526.097656 C 299.546875 532.546875 303.21875 540.289062 303.21875 549.324219 "/>
<path fill-rule="nonzero" fill="white" fill-opacity="1" d="M 403.007812 521.371094 L 389.5625 532.664062 C 386.214844 528.902344 380.382812 525.675781 372.066406 522.992188 C 363.75 520.3125 356.460938 519.441406 350.199219 520.382812 C 344.582031 521.136719 339.773438 522.851562 335.78125 525.535156 C 331.785156 528.21875 329.300781 531.773438 328.328125 536.195312 C 327.785156 539.019531 328.542969 541.539062 330.597656 543.746094 C 332.644531 545.960938 335.589844 547.792969 339.425781 549.253906 C 343.257812 550.714844 347.710938 552.125 352.789062 553.488281 C 357.863281 554.855469 363.128906 556.078125 368.585938 557.160156 C 374.035156 558.242188 379.4375 559.582031 384.785156 561.183594 C 390.128906 562.785156 394.992188 564.453125 399.363281 566.195312 C 403.738281 567.9375 407.410156 570.21875 410.378906 573.042969 C 413.347656 575.867188 415.101562 579.019531 415.644531 582.5 C 416.292969 586.269531 415.5625 589.9375 413.457031 593.515625 C 411.351562 597.09375 408.410156 600.148438 404.628906 602.691406 C 400.847656 605.230469 396.609375 607.492188 391.914062 609.46875 C 387.214844 611.445312 382.542969 612.925781 377.898438 613.914062 C 373.253906 614.902344 369.042969 615.398438 365.261719 615.398438 C 355.328125 615.300781 345.28125 614.386719 335.132812 612.644531 C 324.980469 610.902344 316.71875 608.574219 310.347656 605.65625 L 320.066406 589.5625 C 322.117188 594.175781 325.222656 598.101562 329.382812 601.351562 C 333.539062 604.597656 338.101562 606.925781 343.070312 608.339844 C 348.035156 609.75 353.246094 610.644531 358.703125 611.019531 C 364.15625 611.398438 369.417969 611.089844 374.496094 610.101562 C 379.574219 609.113281 384.160156 607.75 388.265625 606.007812 C 392.371094 604.269531 395.609375 602.011719 397.988281 599.230469 C 400.363281 596.457031 401.496094 593.515625 401.390625 590.40625 C 401.28125 587.492188 399.363281 584.808594 395.636719 582.359375 C 391.914062 579.914062 387.1875 577.796875 381.464844 576.007812 C 375.738281 574.21875 369.449219 572.457031 362.589844 570.714844 C 355.730469 568.972656 349.035156 567.042969 342.503906 564.925781 C 335.96875 562.808594 330.109375 560.476562 324.925781 557.9375 C 319.742188 555.394531 315.855469 552.195312 313.261719 548.335938 C 310.671875 544.476562 310.074219 540.101562 311.480469 535.207031 C 312.34375 532.007812 314.152344 529.160156 316.90625 526.664062 C 319.660156 524.171875 323.089844 522.21875 327.195312 520.804688 C 331.296875 519.394531 335.722656 518.335938 340.476562 517.628906 C 345.230469 516.925781 350.359375 516.523438 355.867188 516.429688 C 369.582031 516.242188 385.296875 517.890625 403.007812 521.371094 "/>
<path fill-rule="nonzero" fill="white" fill-opacity="1" d="M 457.601562 605.375 C 463.648438 609.421875 470.238281 611.445312 477.367188 611.445312 C 484.492188 611.445312 491.078125 609.421875 497.128906 605.375 C 503.175781 601.328125 507.925781 595.796875 511.382812 588.785156 C 514.839844 581.773438 516.570312 574.125 516.570312 565.84375 C 516.570312 557.5625 514.839844 549.914062 511.382812 542.898438 C 507.925781 535.890625 503.175781 530.359375 497.128906 526.3125 C 491.078125 522.265625 484.492188 520.242188 477.367188 520.242188 C 470.238281 520.242188 463.648438 522.265625 457.601562 526.3125 C 451.550781 530.359375 446.800781 535.890625 443.34375 542.898438 C 439.886719 549.914062 438.160156 557.5625 438.160156 565.84375 C 438.160156 574.125 439.886719 581.773438 443.34375 588.785156 C 446.800781 595.796875 451.550781 601.328125 457.601562 605.375 M 437.269531 530.898438 C 448.339844 521.253906 461.703125 516.429688 477.367188 516.429688 C 493.023438 516.429688 506.386719 521.253906 517.460938 530.898438 C 528.527344 540.550781 534.0625 552.195312 534.0625 565.84375 C 534.0625 579.492188 528.527344 591.136719 517.460938 600.785156 C 506.386719 610.433594 493.023438 615.253906 477.367188 615.253906 C 461.703125 615.253906 448.339844 610.433594 437.269531 600.785156 C 426.199219 591.136719 420.667969 579.492188 420.667969 565.84375 C 420.667969 552.195312 426.199219 540.550781 437.269531 530.898438 "/>
<path fill-rule="nonzero" fill="white" fill-opacity="1" d="M 646.652344 516.429688 L 646.652344 615.253906 L 642.277344 615.253906 L 550.75 535.347656 L 550.75 615.253906 L 546.375 615.253906 L 546.375 516.429688 L 553.503906 516.429688 L 642.277344 593.796875 L 642.277344 516.429688 Z M 646.652344 516.429688 "/>
<path fill-rule="nonzero" fill="white" fill-opacity="1" d="M 742.230469 582.359375 L 709.507812 520.945312 L 676.785156 582.359375 Z M 674.839844 586.171875 L 659.289062 615.257812 L 654.429688 615.257812 L 707.078125 516.429688 L 726.355469 516.429688 L 779.003906 615.257812 L 759.726562 615.257812 L 744.335938 586.171875 Z M 674.839844 586.171875 "/>
<path fill-rule="nonzero" fill="white" fill-opacity="1" d="M 786.617188 615.257812 L 786.617188 516.429688 L 804.113281 516.429688 L 804.113281 611.445312 L 876.039062 611.445312 L 876.039062 615.257812 Z M 786.617188 615.257812 "/>
<path fill-rule="nonzero" fill="white" fill-opacity="1" d="M 1009.199219 565.84375 L 959.628906 565.84375 L 959.628906 611.445312 L 1009.199219 611.445312 C 1016.328125 611.445312 1022.453125 609.210938 1027.585938 604.738281 C 1032.714844 600.269531 1035.28125 594.902344 1035.28125 588.644531 C 1035.28125 582.386719 1032.714844 577.019531 1027.585938 572.546875 C 1022.453125 568.078125 1016.328125 565.84375 1009.199219 565.84375 M 959.628906 520.242188 L 959.628906 562.03125 L 997.859375 562.03125 C 1002.175781 562.03125 1006.171875 561.089844 1009.847656 559.207031 C 1013.515625 557.324219 1016.433594 554.785156 1018.59375 551.582031 C 1020.753906 548.386719 1021.835938 544.902344 1021.835938 541.136719 C 1021.835938 538.3125 1021.210938 535.609375 1019.972656 533.019531 C 1018.730469 530.429688 1017.027344 528.21875 1014.867188 526.382812 C 1012.707031 524.546875 1010.144531 523.066406 1007.171875 521.933594 C 1004.203125 520.804688 1001.097656 520.242188 997.859375 520.242188 Z M 1022.160156 615.253906 L 942.132812 615.253906 L 942.132812 516.429688 L 1010.980469 516.429688 C 1018.757812 516.429688 1025.421875 518.855469 1030.988281 523.699219 C 1036.546875 528.546875 1039.332031 534.359375 1039.332031 541.136719 C 1039.332031 545.464844 1038.117188 549.488281 1035.6875 553.207031 C 1033.253906 556.925781 1029.933594 559.914062 1025.722656 562.171875 C 1033.28125 562.925781 1039.65625 565.84375 1044.839844 570.925781 C 1050.023438 576.007812 1052.613281 581.9375 1052.613281 588.714844 C 1052.613281 596.054688 1049.644531 602.316406 1043.703125 607.492188 C 1037.765625 612.667969 1030.582031 615.253906 1022.160156 615.253906 "/>
<path fill-rule="nonzero" fill="white" fill-opacity="1" d="M 1081.609375 520.242188 L 1081.609375 578.546875 L 1106.394531 578.546875 C 1115.574219 578.546875 1123.429688 575.679688 1129.964844 569.9375 C 1136.5 564.199219 1139.765625 557.324219 1139.765625 549.324219 C 1139.765625 541.324219 1136.5 534.476562 1129.964844 528.78125 C 1123.429688 523.089844 1115.574219 520.242188 1106.394531 520.242188 Z M 1157.101562 549.324219 C 1157.101562 554.878906 1155.617188 560.078125 1152.644531 564.925781 C 1149.675781 569.773438 1145.597656 573.726562 1140.417969 576.785156 C 1135.230469 579.84375 1129.453125 581.65625 1123.082031 582.21875 L 1157.101562 615.253906 L 1133.773438 615.253906 L 1099.917969 582.363281 L 1081.609375 582.363281 L 1081.609375 615.253906 L 1064.113281 615.253906 L 1064.113281 516.429688 L 1119.355469 516.429688 C 1129.832031 516.429688 1138.742188 519.652344 1146.085938 526.097656 C 1153.429688 532.546875 1157.101562 540.289062 1157.101562 549.324219 "/>
<path fill-rule="nonzero" fill="white" fill-opacity="1" d="M 1247.332031 582.359375 L 1214.609375 520.945312 L 1181.886719 582.359375 Z M 1179.941406 586.171875 L 1164.390625 615.257812 L 1159.53125 615.257812 L 1212.179688 516.429688 L 1231.457031 516.429688 L 1284.109375 615.257812 L 1264.828125 615.257812 L 1249.441406 586.171875 Z M 1179.941406 586.171875 "/>
<path fill-rule="nonzero" fill="white" fill-opacity="1" d="M 1391.996094 516.429688 L 1391.996094 615.253906 L 1387.621094 615.253906 L 1296.09375 535.347656 L 1296.09375 615.253906 L 1291.71875 615.253906 L 1291.71875 516.429688 L 1298.847656 516.429688 L 1387.621094 593.796875 L 1387.621094 516.429688 Z M 1391.996094 516.429688 "/>
<path fill-rule="nonzero" fill="white" fill-opacity="1" d="M 1427.472656 611.445312 L 1450.800781 611.445312 C 1460.195312 611.445312 1468.917969 609.394531 1476.964844 605.304688 C 1485.007812 601.210938 1491.382812 595.65625 1496.082031 588.644531 C 1500.777344 581.632812 1503.125 574.03125 1503.125 565.84375 C 1503.125 557.652344 1500.777344 550.054688 1496.082031 543.042969 C 1491.382812 536.03125 1485.007812 530.476562 1476.964844 526.382812 C 1468.917969 522.289062 1460.195312 520.242188 1450.800781 520.242188 L 1427.472656 520.242188 Z M 1409.976562 615.257812 L 1409.976562 516.429688 L 1463.761719 516.429688 C 1474.019531 516.429688 1483.496094 518.640625 1492.191406 523.0625 C 1500.882812 527.488281 1507.769531 533.488281 1512.847656 541.066406 C 1517.921875 548.644531 1520.460938 556.902344 1520.460938 565.84375 C 1520.460938 574.785156 1517.921875 583.042969 1512.847656 590.621094 C 1507.769531 598.195312 1500.882812 604.195312 1492.191406 608.621094 C 1483.496094 613.046875 1474.019531 615.257812 1463.761719 615.257812 Z M 1409.976562 615.257812 "/>
<path fill-rule="nonzero" fill="white" fill-opacity="1" d="M 1550.265625 615.257812 L 1532.769531 615.257812 L 1532.769531 516.429688 L 1550.265625 516.429688 Z M 1550.265625 615.257812 "/>
<path fill-rule="nonzero" fill="white" fill-opacity="1" d="M 1668.363281 516.429688 L 1668.363281 615.253906 L 1663.988281 615.253906 L 1572.460938 535.347656 L 1572.460938 615.253906 L 1568.085938 615.253906 L 1568.085938 516.429688 L 1575.214844 516.429688 L 1663.988281 593.796875 L 1663.988281 516.429688 Z M 1668.363281 516.429688 "/>
<path fill-rule="nonzero" fill="white" fill-opacity="1" d="M 1709.105469 523.066406 C 1717.796875 518.640625 1727.273438 516.429688 1737.535156 516.429688 C 1747.792969 516.429688 1757.351562 518.6875 1766.207031 523.207031 L 1766.207031 538.875 C 1760.808594 531.816406 1754.300781 526.644531 1746.6875 523.347656 C 1739.074219 520.054688 1731.484375 519.300781 1723.925781 521.089844 C 1717.015625 522.78125 1711.234375 526.359375 1706.59375 531.816406 C 1701.949219 537.277344 1699.03125 543.703125 1697.84375 551.089844 C 1696.65625 558.480469 1697.25 566.40625 1699.625 574.878906 C 1701.351562 580.714844 1704.433594 586.152344 1708.863281 591.183594 C 1713.289062 596.21875 1718.066406 600.21875 1723.199219 603.183594 C 1728.324219 606.148438 1733.402344 608.316406 1738.425781 609.679688 C 1743.449219 611.046875 1747.632812 611.351562 1750.980469 610.597656 C 1752.492188 610.222656 1753.839844 609.773438 1755.03125 609.253906 C 1756.21875 608.738281 1757.269531 608.152344 1758.191406 607.492188 C 1759.105469 606.832031 1759.917969 606.054688 1760.621094 605.160156 C 1761.320312 604.269531 1761.941406 603.375 1762.480469 602.480469 C 1763.023438 601.585938 1763.453125 600.503906 1763.777344 599.230469 C 1764.101562 597.960938 1764.371094 596.761719 1764.589844 595.632812 C 1764.804688 594.503906 1764.992188 593.160156 1765.15625 591.609375 C 1765.316406 590.054688 1765.398438 588.574219 1765.398438 587.160156 L 1765.398438 569.65625 L 1731.539062 569.65625 L 1731.539062 565.84375 L 1782.894531 565.84375 L 1782.894531 615.253906 L 1765.398438 608.902344 C 1756.757812 613.136719 1747.46875 615.253906 1737.535156 615.253906 C 1721.875 615.253906 1708.507812 610.433594 1697.441406 600.785156 C 1686.367188 591.136719 1680.835938 579.492188 1680.835938 565.84375 C 1680.835938 556.902344 1683.371094 548.644531 1688.449219 541.066406 C 1693.523438 533.488281 1700.410156 527.488281 1709.105469 523.066406 "/>
<path fill-rule="nonzero" fill="white" fill-opacity="1" d="M 1933.0625 582.359375 L 1900.339844 520.945312 L 1867.613281 582.359375 Z M 1865.671875 586.171875 L 1850.121094 615.257812 L 1845.261719 615.257812 L 1897.910156 516.429688 L 1917.1875 516.429688 L 1969.835938 615.257812 L 1950.558594 615.257812 L 1935.167969 586.171875 Z M 1865.671875 586.171875 "/>
<path fill-rule="nonzero" fill="white" fill-opacity="1" d="M 1993.894531 523.066406 C 2002.585938 518.640625 2012.0625 516.429688 2022.324219 516.429688 C 2032.582031 516.429688 2042.140625 518.6875 2050.996094 523.207031 L 2050.996094 538.875 C 2045.597656 531.816406 2039.089844 526.644531 2031.476562 523.347656 C 2023.863281 520.054688 2016.277344 519.300781 2008.714844 521.089844 C 2001.804688 522.78125 1996.027344 526.359375 1991.382812 531.816406 C 1986.738281 537.277344 1983.824219 543.703125 1982.636719 551.089844 C 1981.445312 558.480469 1982.039062 566.40625 1984.417969 574.878906 C 1986.144531 580.714844 1989.222656 586.152344 1993.652344 591.183594 C 1998.078125 596.21875 2002.855469 600.21875 2007.988281 603.183594 C 2013.117188 606.148438 2018.195312 608.316406 2023.214844 609.679688 C 2028.238281 611.046875 2032.421875 611.351562 2035.769531 610.597656 C 2037.28125 610.222656 2038.628906 609.773438 2039.820312 609.253906 C 2041.007812 608.738281 2042.0625 608.152344 2042.980469 607.492188 C 2043.894531 606.832031 2044.707031 606.054688 2045.410156 605.160156 C 2046.109375 604.269531 2046.730469 603.375 2047.273438 602.480469 C 2047.8125 601.585938 2048.246094 600.503906 2048.570312 599.230469 C 2048.894531 597.960938 2049.160156 596.761719 2049.378906 595.632812 C 2049.59375 594.503906 2049.785156 593.160156 2049.945312 591.609375 C 2050.105469 590.054688 2050.1875 588.574219 2050.1875 587.160156 L 2050.1875 569.65625 L 2016.332031 569.65625 L 2016.332031 565.84375 L 2067.683594 565.84375 L 2067.683594 615.253906 L 2050.1875 608.902344 C 2041.546875 613.136719 2032.257812 615.253906 2022.324219 615.253906 C 2006.664062 615.253906 1993.300781 610.433594 1982.230469 600.785156 C 1971.15625 591.136719 1965.625 579.492188 1965.625 565.84375 C 1965.625 556.902344 1968.160156 548.644531 1973.238281 541.066406 C 1978.316406 533.488281 1985.199219 527.488281 1993.894531 523.066406 "/>
<path fill-rule="nonzero" fill="white" fill-opacity="1" d="M 2080.804688 615.257812 L 2080.804688 516.429688 L 2170.226562 516.429688 L 2170.226562 520.242188 L 2098.300781 520.242188 L 2098.300781 564.007812 L 2141.066406 564.007812 L 2141.066406 567.820312 L 2098.300781 567.820312 L 2098.300781 611.445312 L 2170.226562 611.445312 L 2170.226562 615.257812 Z M 2080.804688 615.257812 "/>
<path fill-rule="nonzero" fill="white" fill-opacity="1" d="M 2278.601562 516.429688 L 2278.601562 615.253906 L 2274.230469 615.253906 L 2182.699219 535.347656 L 2182.699219 615.253906 L 2178.324219 615.253906 L 2178.324219 516.429688 L 2185.453125 516.429688 L 2274.230469 593.796875 L 2274.230469 516.429688 Z M 2278.601562 516.429688 "/>
<path fill-rule="nonzero" fill="white" fill-opacity="1" d="M 2347.613281 516.429688 C 2355.386719 516.429688 2362.703125 517.699219 2369.5625 520.242188 C 2376.421875 522.78125 2382.496094 526.359375 2387.789062 530.96875 L 2377.257812 540.007812 C 2371.855469 532.574219 2365.242188 527.113281 2357.414062 523.628906 C 2349.582031 520.148438 2341.835938 519.300781 2334.167969 521.089844 C 2327.253906 522.78125 2321.449219 526.359375 2316.753906 531.816406 C 2312.054688 537.277344 2309.136719 543.703125 2308.003906 551.089844 C 2306.871094 558.480469 2307.4375 566.40625 2309.707031 574.878906 C 2313.375 587.210938 2320.261719 596.855469 2330.359375 603.820312 C 2340.457031 610.785156 2350.742188 613.046875 2361.21875 610.597656 C 2369.96875 608.527344 2376.824219 603.492188 2381.792969 595.488281 L 2387.789062 600.714844 C 2382.496094 605.328125 2376.421875 608.902344 2369.5625 611.445312 C 2362.703125 613.984375 2355.386719 615.253906 2347.613281 615.253906 C 2331.953125 615.253906 2318.585938 610.433594 2307.519531 600.785156 C 2296.445312 591.140625 2290.914062 579.492188 2290.914062 565.84375 C 2290.914062 552.195312 2296.445312 540.546875 2307.519531 530.902344 C 2318.585938 521.253906 2331.953125 516.429688 2347.613281 516.429688 "/>
<path fill-rule="nonzero" fill="white" fill-opacity="1" d="M 2489.683594 516.429688 L 2495.191406 516.429688 L 2451.9375 564.570312 L 2451.9375 615.398438 L 2434.441406 615.398438 L 2434.441406 569.796875 L 2386.492188 516.429688 L 2408.683594 516.429688 L 2449.183594 561.464844 Z M 2489.683594 516.429688 "/>
<path fill-rule="nonzero" fill="white" fill-opacity="1" d="M 8.707031 448.675781 L 8.707031 20.824219 L 84.453125 20.824219 L 84.453125 432.171875 L 395.847656 432.171875 L 395.847656 448.675781 Z M 8.707031 448.675781 "/>
<path fill-rule="nonzero" fill="white" fill-opacity="1" d="M 424.59375 448.675781 L 424.59375 20.824219 L 811.734375 20.824219 L 811.734375 37.324219 L 500.339844 37.324219 L 500.339844 226.804688 L 685.496094 226.804688 L 685.496094 243.308594 L 500.339844 243.308594 L 500.339844 432.171875 L 811.734375 432.171875 L 811.734375 448.675781 Z M 424.59375 448.675781 "/>
<path fill-rule="nonzero" fill="white" fill-opacity="1" d="M 1182.738281 306.261719 L 1041.066406 40.382812 L 899.394531 306.261719 Z M 890.980469 322.765625 L 823.652344 448.675781 L 802.609375 448.675781 L 1030.546875 20.824219 L 1114.007812 20.824219 L 1341.941406 448.675781 L 1258.484375 448.675781 L 1191.855469 322.765625 Z M 890.980469 322.765625 "/>
<path fill-rule="nonzero" fill="white" fill-opacity="1" d="M 1450.644531 432.171875 L 1551.636719 432.171875 C 1592.316406 432.171875 1630.066406 423.3125 1664.90625 405.585938 C 1699.730469 387.859375 1727.324219 363.820312 1747.664062 333.460938 C 1768 303.109375 1778.171875 270.199219 1778.171875 234.75 C 1778.171875 199.300781 1768 166.398438 1747.664062 136.039062 C 1727.324219 105.6875 1699.730469 81.640625 1664.90625 63.914062 C 1630.066406 46.1875 1592.316406 37.324219 1551.636719 37.324219 L 1450.644531 37.324219 Z M 1374.902344 448.675781 L 1374.902344 20.824219 L 1607.746094 20.824219 C 1652.160156 20.824219 1693.1875 30.402344 1730.832031 49.550781 C 1768.460938 68.707031 1798.269531 94.6875 1820.25 127.480469 C 1842.222656 160.285156 1853.214844 196.042969 1853.214844 234.75 C 1853.214844 273.46875 1842.222656 309.222656 1820.25 342.019531 C 1798.269531 374.824219 1768.460938 400.800781 1730.832031 419.949219 C 1693.1875 439.105469 1652.160156 448.675781 1607.746094 448.675781 Z M 1374.902344 448.675781 "/>
<path fill-rule="nonzero" fill="white" fill-opacity="1" d="M 1982.257812 448.675781 L 1906.515625 448.675781 L 1906.515625 20.824219 L 1982.257812 20.824219 Z M 1982.257812 448.675781 "/>
<path fill-rule="nonzero" fill="white" fill-opacity="1" d="M 2493.527344 20.824219 L 2493.527344 448.675781 L 2474.589844 448.675781 L 2078.332031 102.726562 L 2078.332031 448.675781 L 2059.398438 448.675781 L 2059.398438 20.824219 L 2090.257812 20.824219 L 2474.589844 355.769531 L 2474.589844 20.824219 Z M 2493.527344 20.824219 "/>
</svg>
